<svg xmlns="http://www.w3.org/2000/svg" viewBox="0 0 128 128"><defs><style>.cls-1{fill:#28ff41;}</style></defs><g id="Layer_3" data-name="Layer 3"><path class="cls-1" d="M116.93,14.34H11.07a5.91,5.91,0,0,0-5.9,5.91V74.62a10.07,10.07,0,0,0,10,10H56.42V109.6H32.14a1,1,0,0,0-1,1v2.06a1,1,0,0,0,1,1H95.86a1,1,0,0,0,1-1V110.6a1,1,0,0,0-1-1H71.58V84.66h41.21a10,10,0,0,0,10-10V20.25A5.91,5.91,0,0,0,116.93,14.34ZM60.17,79.66a3.83,3.83,0,1,1,7.66,0,3.57,3.57,0,0,1-.1.87,3.84,3.84,0,0,1-7.47,0A3.57,3.57,0,0,1,60.17,79.66ZM114.79,75H13.2V19.86H114.79Z"/></g></svg>