<svg id="Layer_1" data-name="Layer 1" xmlns="http://www.w3.org/2000/svg" viewBox="0 0 48 48"><path d="M13.1,4H35.3V29.6L21.4,44l-1.95-1.55a1.52,1.52,0,0,1-.45-.7,3.52,3.52,0,0,1-.15-1.1v-.5L21.1,29.6H6.15a2.88,2.88,0,0,1-2.1-.9,2.88,2.88,0,0,1-.9-2.1V22.5a3.75,3.75,0,0,0-.07-.73,1.18,1.18,0,0,1,.07-.72l6.3-14.5a4.3,4.3,0,0,1,1.48-1.8A3.59,3.59,0,0,1,13.1,4ZM32.3,7H12.45L6.15,22V26.6H24.8L22.15,39.05,32.3,28.35Zm0,21.35v0Zm3,1.25v-3H42V7H35.3V4H45V29.6Z"/><polygon points="33.37 5.38 11.83 5.79 5.1 20.71 5.1 27.33 23.53 28.35 21.05 39.05 21.67 40.59 33.37 29.2 33.37 5.38"/></svg>