<svg id="Layer_1" data-name="Layer 1" xmlns="http://www.w3.org/2000/svg" viewBox="0 0 48 48"><path d="M34.9,44H12.7V18.4L26.6,4l1.95,1.55a1.52,1.52,0,0,1,.45.7,3.52,3.52,0,0,1,.15,1.1v.5L26.9,18.4h15a3.08,3.08,0,0,1,3,3v4.1a3.14,3.14,0,0,0,.08.73,1.26,1.26,0,0,1-.08.72l-6.3,14.5a4.35,4.35,0,0,1-1.47,1.8A3.64,3.64,0,0,1,34.9,44ZM15.7,41H35.55l6.3-14.95V21.4H23.2L25.85,9,15.7,19.65Zm0-21.35v0Zm-3-1.25v3H6.05V41H12.7v3H3.05V18.4Z"/><polygon points="43.38 27.79 42.51 19.65 25.14 19.65 27.28 6.72 14.59 18.99 14.12 42.46 35.87 42.46 43.38 27.79"/></svg>